<svg xmlns="http://www.w3.org/2000/svg" xmlns:xlink="http://www.w3.org/1999/xlink" viewBox="0 0 246.57 104.93"><defs><style>.cls-1{fill:url(#linear-gradient);}.cls-2{fill:url(#linear-gradient-2);}.cls-3{fill:url(#linear-gradient-3);}.cls-4{fill:url(#linear-gradient-4);}.cls-5{fill:url(#linear-gradient-5);}.cls-6{fill:url(#linear-gradient-6);}.cls-7{fill:url(#linear-gradient-7);}.cls-8{fill:url(#linear-gradient-8);}.cls-9{fill:url(#linear-gradient-9);}.cls-10{fill:url(#linear-gradient-10);}.cls-11{fill:url(#linear-gradient-11);}.cls-12{fill:url(#linear-gradient-12);}</style><linearGradient id="linear-gradient" y1="36.99" x2="56.24" y2="36.99" gradientUnits="userSpaceOnUse"><stop offset="0" stop-color="#37676f"/><stop offset="1" stop-color="#344544"/></linearGradient><linearGradient id="linear-gradient-2" x1="0" y1="91.28" x2="56.24" y2="91.28" xlink:href="#linear-gradient"/><linearGradient id="linear-gradient-3" x1="37.18" y1="91.28" x2="68.28" y2="91.28" xlink:href="#linear-gradient"/><linearGradient id="linear-gradient-4" x1="37.18" y1="52.86" x2="68.28" y2="52.86" xlink:href="#linear-gradient"/><linearGradient id="linear-gradient-5" x1="63.74" y1="44.03" x2="100.82" y2="44.03" xlink:href="#linear-gradient"/><linearGradient id="linear-gradient-6" x1="63.74" y1="91.3" x2="100.82" y2="91.3" xlink:href="#linear-gradient"/><linearGradient id="linear-gradient-7" x1="92.16" y1="52.16" x2="152.88" y2="52.16" xlink:href="#linear-gradient"/><linearGradient id="linear-gradient-8" x1="92.16" y1="91.28" x2="152.88" y2="91.28" xlink:href="#linear-gradient"/><linearGradient id="linear-gradient-9" x1="92.16" y1="91.27" x2="152.88" y2="91.27" xlink:href="#linear-gradient"/><linearGradient id="linear-gradient-10" x1="153.2" y1="52.19" x2="214.61" y2="52.19" xlink:href="#linear-gradient"/><linearGradient id="linear-gradient-11" x1="153.22" y1="91.3" x2="214.61" y2="91.3" xlink:href="#linear-gradient"/><linearGradient id="linear-gradient-12" x1="210.14" y1="59.49" x2="246.57" y2="59.49" xlink:href="#linear-gradient"/></defs><title>Asset 5</title><g id="Layer_2" data-name="Layer 2"><g id="Layer_1-2" data-name="Layer 1"><path class="cls-1" d="M28.65,45.82H43.36L45.8,31.75H31.11L32,25.57a14.36,14.36,0,0,1,9.37-11c4.71-1.61,12.36-.85,12.36-.85L56.24,0H39.61Q28.78-.13,21.94,6.68t-8.43,19c-.27,2-.53,4-.8,6L10.25,45.82Q7.8,59.91,5.37,74H23.76Z"/><path class="cls-2" d="M0,104.89H18.4l4.72-27.21H4.72Q2.37,91.29,0,104.89Z"/><polygon class="cls-3" points="37.18 104.89 55.57 104.89 60.3 77.68 41.9 77.68 37.18 104.89"/><polygon class="cls-4" points="68.28 31.75 49.88 31.75 42.55 73.98 60.94 73.98 68.28 31.75"/><polygon class="cls-5" points="88.42 45.82 98.32 45.82 100.82 31.75 90.87 31.75 93.93 14.08 75.6 14.08 72.48 31.75 70.09 45.82 65.49 73.98 83.67 73.98 88.42 45.82"/><path class="cls-6" d="M63.91,83.65Q63,93.43,67,99.08t12.09,5.78c3.63,0,8.46.07,8.46.07l2.9-16s-3.9-.06-4.65-.1q-4-.14-3.72-4.59l.2-2.13.74-4.39H64.89Z"/><path class="cls-7" d="M119.94,51.34a23.14,23.14,0,0,1,3.72-3.69,7.62,7.62,0,0,1,4.85-1.56q6.11,0,5.84,7.77L134,57.78,131.34,74h18.45l2.69-16.07.4-6.11Q152.94,41.57,149,36t-11.52-5.68q-9.22-.27-16.8,8.57L122,31.68l-17.14.07L97.53,74H116Z"/><polygon class="cls-8" points="126.23 104.89 144.63 104.89 149.18 77.68 130.73 77.68 126.23 104.89"/><polygon class="cls-9" points="92.16 104.86 110.62 104.86 115.35 77.68 96.88 77.68 92.16 104.86"/><path class="cls-10" d="M171.65,74h35.84l1.27-8.63A57.1,57.1,0,0,0,209,53q-.93-10.56-6.54-16.44T187,30.42q-13.41-.33-22.08,9.13T154.1,66.88l-.6,4.91c-.08.74-.14,1.47-.19,2.19Zm2.58-18q3.12-10.42,11-10.09,6.9.33,6.64,8.77a47.45,47.45,0,0,1-.73,6.24l-18.26-.07Z"/><path class="cls-11" d="M208.3,98.29a16.66,16.66,0,0,1-2-9s-20,.18-25.51,0q-8.9-.19-9.36-9.76c0-.59,0-1.2,0-1.81H153.22A35.09,35.09,0,0,0,155.13,89a23.29,23.29,0,0,0,8.77,11.72c5.46,3.76,14.77,4.25,14.77,4.25h35.94S211.72,105,208.3,98.29Z"/><path class="cls-12" d="M234.82,45.82h9.3l2.45-14.07h-9.29l3.05-17.67H222l-3.12,17.67-2.39,14.07-6.18,37.83q-.93,9.78,3.12,15.43c2.71,3.76,7,5.81,10.17,5.81,4.19,0,9.85,0,13.56,0l2.63-14.73c-2.26.27-7.23,0-8.38-.56a5.51,5.51,0,0,1-2.9-5.4l.2-2.13Z"/></g></g></svg>